<mxfile host="app.diagrams.net" modified="2024-05-18T09:09:08.668Z" agent="Mozilla/5.0 (Windows NT 10.0; Win64; x64) AppleWebKit/537.36 (KHTML, like Gecko) Chrome/123.0.0.0 Safari/537.36 OPR/109.0.0.0" version="23.0.2" etag="ZepQPpBTxKRQOLmME9ER" type="github">
  <diagram name="Page-1" id="pg225ynwhcXKmef1wNro">
    <mxGraphModel>
      <root>
        <mxCell id="0" />
        <mxCell id="1" parent="0" />
      </root>
    </mxGraphModel>
  </diagram>
</mxfile>
